<?xml version="1.0" encoding="UTF-8"?>
<svg xmlns="http://www.w3.org/2000/svg" xmlns:xlink="http://www.w3.org/1999/xlink" width="1920" height="1080" viewBox="0 0 1920 1080">
<defs>
<g>
<g id="glyph-0-0">
<path d="M 0.0976562 -0.0664062 C 0.238281 -0.078125 0.335938 -0.105469 0.386719 -0.152344 C 0.4375 -0.195312 0.464844 -0.28125 0.464844 -0.40625 L 0.464844 -2.660156 C 0.464844 -2.761719 0.453125 -2.832031 0.4375 -2.871094 C 0.40625 -2.9375 0.34375 -2.96875 0.25 -2.96875 C 0.230469 -2.96875 0.207031 -2.964844 0.179688 -2.960938 C 0.15625 -2.957031 0.125 -2.949219 0.0859375 -2.941406 L 0.0859375 -3.015625 C 0.292969 -3.070312 0.542969 -3.144531 0.835938 -3.238281 C 0.847656 -3.238281 0.851562 -3.234375 0.855469 -3.222656 C 0.855469 -3.214844 0.859375 -3.195312 0.859375 -3.164062 L 0.859375 -0.398438 C 0.859375 -0.265625 0.882812 -0.179688 0.925781 -0.140625 C 0.972656 -0.101562 1.070312 -0.0742188 1.214844 -0.0664062 L 1.214844 0 L 0.0976562 0 Z "/>
</g>
<g id="glyph-0-1">
<path d="M 0.121094 -1.070312 C 0.121094 -1.375 0.21875 -1.632812 0.410156 -1.847656 C 0.605469 -2.058594 0.855469 -2.164062 1.164062 -2.164062 C 1.46875 -2.164062 1.71875 -2.0625 1.917969 -1.863281 C 2.117188 -1.664062 2.21875 -1.398438 2.21875 -1.066406 C 2.21875 -0.761719 2.121094 -0.492188 1.929688 -0.265625 C 1.734375 -0.0390625 1.484375 0.0703125 1.175781 0.0703125 C 0.878906 0.0703125 0.632812 -0.0351562 0.425781 -0.253906 C 0.222656 -0.46875 0.121094 -0.742188 0.121094 -1.070312 Z M 1.097656 -2.023438 C 0.976562 -2.023438 0.871094 -1.984375 0.78125 -1.90625 C 0.628906 -1.765625 0.550781 -1.523438 0.550781 -1.179688 C 0.550781 -0.90625 0.613281 -0.652344 0.738281 -0.414062 C 0.859375 -0.179688 1.03125 -0.0585938 1.253906 -0.0585938 C 1.425781 -0.0585938 1.558594 -0.140625 1.648438 -0.296875 C 1.742188 -0.457031 1.789062 -0.664062 1.789062 -0.921875 C 1.789062 -1.1875 1.730469 -1.4375 1.613281 -1.671875 C 1.492188 -1.90625 1.320312 -2.023438 1.097656 -2.023438 Z "/>
</g>
<g id="glyph-0-2">
<path d="M 2.195312 -2.070312 C 2.101562 -2.058594 2.035156 -2.042969 1.988281 -2.023438 C 1.945312 -2.003906 1.921875 -1.964844 1.921875 -1.90625 C 1.921875 -1.871094 1.929688 -1.839844 1.9375 -1.804688 C 1.949219 -1.769531 1.960938 -1.730469 1.980469 -1.683594 L 2.398438 -0.589844 L 2.808594 -1.589844 C 2.828125 -1.632812 2.847656 -1.6875 2.867188 -1.757812 C 2.890625 -1.828125 2.902344 -1.882812 2.902344 -1.917969 C 2.902344 -1.972656 2.882812 -2.011719 2.847656 -2.03125 C 2.8125 -2.050781 2.761719 -2.066406 2.695312 -2.074219 L 2.695312 -2.140625 L 3.277344 -2.140625 L 3.277344 -2.074219 C 3.238281 -2.066406 3.210938 -2.050781 3.183594 -2.019531 C 3.160156 -1.992188 3.125 -1.921875 3.082031 -1.8125 L 2.34375 0.0078125 C 2.335938 0.0195312 2.332031 0.03125 2.328125 0.0351562 C 2.324219 0.0429688 2.316406 0.046875 2.304688 0.046875 C 2.285156 0.0390625 2.277344 0.0273438 2.273438 0.0234375 L 1.753906 -1.265625 L 1.144531 0.0195312 C 1.140625 0.0273438 1.140625 0.03125 1.132812 0.0390625 C 1.128906 0.0429688 1.121094 0.046875 1.113281 0.046875 C 1.09375 0.0390625 1.085938 0.0273438 1.082031 0.0234375 L 0.390625 -1.675781 C 0.316406 -1.863281 0.265625 -1.972656 0.242188 -2.003906 C 0.21875 -2.039062 0.167969 -2.058594 0.0976562 -2.070312 L 0.0976562 -2.140625 L 0.949219 -2.140625 L 0.949219 -2.070312 C 0.878906 -2.066406 0.824219 -2.050781 0.789062 -2.03125 C 0.75 -2.011719 0.730469 -1.972656 0.730469 -1.910156 C 0.730469 -1.863281 0.761719 -1.753906 0.824219 -1.582031 C 0.863281 -1.480469 0.910156 -1.359375 0.964844 -1.21875 L 1.230469 -0.5625 L 1.644531 -1.453125 L 1.648438 -1.480469 C 1.648438 -1.511719 1.632812 -1.570312 1.597656 -1.652344 C 1.566406 -1.734375 1.535156 -1.8125 1.503906 -1.878906 C 1.472656 -1.945312 1.4375 -1.996094 1.398438 -2.019531 C 1.359375 -2.046875 1.304688 -2.066406 1.234375 -2.070312 L 1.234375 -2.140625 L 2.195312 -2.140625 Z "/>
</g>
<g id="glyph-0-3">
<rect x="0" y="0" width="0" height="0" mask="url(#mask-0)"/>
</g>
<g id="glyph-0-4">
<path d="M 1.171875 -2.175781 C 1.367188 -2.175781 1.53125 -2.125 1.671875 -2.027344 C 1.808594 -1.925781 1.878906 -1.816406 1.878906 -1.699219 C 1.878906 -1.648438 1.863281 -1.601562 1.828125 -1.558594 C 1.792969 -1.515625 1.738281 -1.492188 1.664062 -1.492188 C 1.609375 -1.492188 1.5625 -1.511719 1.519531 -1.546875 C 1.480469 -1.585938 1.449219 -1.636719 1.433594 -1.707031 L 1.40625 -1.820312 C 1.386719 -1.902344 1.351562 -1.957031 1.300781 -1.992188 C 1.25 -2.023438 1.183594 -2.039062 1.101562 -2.039062 C 0.925781 -2.039062 0.777344 -1.964844 0.65625 -1.8125 C 0.535156 -1.660156 0.476562 -1.453125 0.476562 -1.203125 C 0.476562 -0.96875 0.542969 -0.761719 0.675781 -0.578125 C 0.808594 -0.390625 0.988281 -0.300781 1.214844 -0.300781 C 1.375 -0.300781 1.515625 -0.351562 1.640625 -0.457031 C 1.710938 -0.515625 1.789062 -0.613281 1.878906 -0.742188 L 1.945312 -0.703125 C 1.855469 -0.519531 1.765625 -0.371094 1.667969 -0.265625 C 1.480469 -0.0585938 1.265625 0.0429688 1.023438 0.0429688 C 0.78125 0.0429688 0.570312 -0.0507812 0.386719 -0.238281 C 0.199219 -0.429688 0.109375 -0.6875 0.109375 -1.011719 C 0.109375 -1.328125 0.210938 -1.601562 0.410156 -1.832031 C 0.613281 -2.058594 0.867188 -2.175781 1.171875 -2.175781 Z "/>
</g>
<g id="glyph-0-5">
<path d="M 0.0859375 -0.0664062 C 0.195312 -0.078125 0.269531 -0.105469 0.316406 -0.144531 C 0.359375 -0.1875 0.378906 -0.277344 0.378906 -0.417969 L 0.378906 -1.589844 C 0.378906 -1.6875 0.371094 -1.757812 0.351562 -1.796875 C 0.324219 -1.855469 0.261719 -1.882812 0.171875 -1.882812 C 0.160156 -1.882812 0.144531 -1.882812 0.128906 -1.882812 C 0.113281 -1.878906 0.0976562 -1.878906 0.0742188 -1.875 L 0.0742188 -1.957031 C 0.136719 -1.972656 0.289062 -2.023438 0.523438 -2.097656 L 0.738281 -2.171875 C 0.75 -2.171875 0.757812 -2.167969 0.761719 -2.160156 C 0.761719 -2.152344 0.761719 -2.140625 0.761719 -2.125 L 0.761719 -1.789062 C 0.902344 -1.921875 1.015625 -2.011719 1.09375 -2.058594 C 1.214844 -2.132812 1.339844 -2.171875 1.46875 -2.171875 C 1.574219 -2.171875 1.667969 -2.140625 1.753906 -2.082031 C 1.921875 -1.964844 2.003906 -1.757812 2.003906 -1.457031 L 2.003906 -0.378906 C 2.003906 -0.269531 2.027344 -0.191406 2.070312 -0.140625 C 2.113281 -0.0898438 2.191406 -0.0664062 2.292969 -0.0664062 L 2.292969 0 L 1.308594 0 L 1.308594 -0.0664062 C 1.421875 -0.0820312 1.5 -0.109375 1.546875 -0.15625 C 1.589844 -0.203125 1.613281 -0.308594 1.613281 -0.464844 L 1.613281 -1.449219 C 1.613281 -1.582031 1.585938 -1.691406 1.539062 -1.777344 C 1.488281 -1.863281 1.398438 -1.90625 1.265625 -1.90625 C 1.175781 -1.90625 1.082031 -1.875 0.988281 -1.816406 C 0.9375 -1.78125 0.871094 -1.722656 0.785156 -1.640625 L 0.785156 -0.347656 C 0.785156 -0.238281 0.8125 -0.164062 0.859375 -0.125 C 0.910156 -0.0859375 0.988281 -0.0664062 1.09375 -0.0664062 L 1.09375 0 L 0.0859375 0 Z "/>
</g>
<g id="glyph-0-6">
<path d="M 0.152344 -0.0664062 C 0.273438 -0.0703125 0.355469 -0.09375 0.402344 -0.132812 C 0.449219 -0.175781 0.476562 -0.277344 0.476562 -0.441406 L 0.476562 -1.96875 L 0.144531 -1.96875 L 0.144531 -2.109375 L 0.476562 -2.109375 C 0.480469 -2.441406 0.566406 -2.707031 0.734375 -2.90625 C 0.90625 -3.105469 1.164062 -3.207031 1.507812 -3.207031 C 1.65625 -3.207031 1.789062 -3.171875 1.914062 -3.105469 C 2.035156 -3.035156 2.097656 -2.957031 2.097656 -2.863281 C 2.097656 -2.816406 2.082031 -2.773438 2.050781 -2.742188 C 2.015625 -2.707031 1.972656 -2.6875 1.921875 -2.6875 C 1.851562 -2.6875 1.769531 -2.753906 1.675781 -2.886719 C 1.582031 -3.019531 1.480469 -3.082031 1.371094 -3.082031 C 1.257812 -3.082031 1.167969 -3.0625 1.105469 -3.027344 C 1.039062 -2.988281 0.980469 -2.917969 0.925781 -2.816406 C 0.894531 -2.738281 0.875 -2.660156 0.863281 -2.574219 C 0.855469 -2.492188 0.851562 -2.335938 0.851562 -2.109375 L 1.523438 -2.109375 C 1.582031 -2.109375 1.644531 -2.109375 1.71875 -2.113281 C 1.789062 -2.117188 1.847656 -2.121094 1.898438 -2.125 C 1.910156 -2.128906 1.949219 -2.132812 2.007812 -2.148438 C 2.066406 -2.160156 2.101562 -2.164062 2.117188 -2.164062 C 2.125 -2.164062 2.132812 -2.164062 2.140625 -2.15625 C 2.148438 -2.148438 2.152344 -2.136719 2.152344 -2.121094 C 2.152344 -2.109375 2.148438 -2.0625 2.140625 -1.988281 L 2.140625 -1.890625 C 2.136719 -1.855469 2.136719 -1.824219 2.136719 -1.792969 C 2.136719 -1.761719 2.136719 -1.726562 2.136719 -1.691406 L 2.136719 -0.457031 C 2.136719 -0.296875 2.15625 -0.195312 2.203125 -0.152344 C 2.25 -0.109375 2.332031 -0.078125 2.457031 -0.0664062 L 2.457031 0 L 1.421875 0 L 1.421875 -0.0703125 C 1.570312 -0.0820312 1.660156 -0.109375 1.695312 -0.152344 C 1.730469 -0.195312 1.746094 -0.296875 1.746094 -0.457031 L 1.746094 -1.703125 C 1.746094 -1.8125 1.730469 -1.882812 1.699219 -1.910156 C 1.667969 -1.9375 1.597656 -1.957031 1.492188 -1.960938 C 1.417969 -1.960938 1.359375 -1.964844 1.324219 -1.964844 C 1.214844 -1.964844 1.058594 -1.96875 0.851562 -1.96875 L 0.851562 -0.414062 C 0.851562 -0.273438 0.882812 -0.179688 0.949219 -0.128906 C 0.992188 -0.0976562 1.070312 -0.0742188 1.191406 -0.0664062 L 1.191406 0 L 0.152344 0 Z "/>
</g>
<g id="glyph-0-7">
<path d="M 1.117188 -2.179688 C 1.230469 -2.179688 1.332031 -2.15625 1.425781 -2.105469 C 1.488281 -2.074219 1.546875 -2.027344 1.605469 -1.972656 L 1.605469 -2.703125 C 1.605469 -2.796875 1.59375 -2.863281 1.574219 -2.898438 C 1.554688 -2.933594 1.503906 -2.953125 1.425781 -2.953125 C 1.40625 -2.953125 1.390625 -2.949219 1.375 -2.949219 C 1.363281 -2.949219 1.332031 -2.945312 1.285156 -2.941406 L 1.285156 -3.015625 L 1.472656 -3.066406 C 1.542969 -3.082031 1.613281 -3.101562 1.679688 -3.121094 C 1.75 -3.140625 1.8125 -3.160156 1.863281 -3.179688 C 1.886719 -3.1875 1.929688 -3.203125 1.984375 -3.222656 L 2 -3.21875 L 1.996094 -2.976562 C 1.992188 -2.890625 1.992188 -2.800781 1.988281 -2.707031 C 1.988281 -2.613281 1.988281 -2.519531 1.988281 -2.429688 L 1.984375 -0.546875 C 1.984375 -0.445312 1.996094 -0.375 2.019531 -0.335938 C 2.042969 -0.296875 2.109375 -0.277344 2.214844 -0.277344 C 2.234375 -0.277344 2.25 -0.277344 2.265625 -0.277344 C 2.285156 -0.277344 2.300781 -0.28125 2.316406 -0.285156 L 2.316406 -0.207031 C 2.308594 -0.203125 2.195312 -0.167969 1.984375 -0.09375 L 1.621094 0.0429688 L 1.605469 0.0234375 L 1.605469 -0.261719 C 1.519531 -0.167969 1.445312 -0.101562 1.382812 -0.0585938 C 1.269531 0.0078125 1.140625 0.0429688 0.992188 0.0429688 C 0.730469 0.0429688 0.519531 -0.0585938 0.355469 -0.257812 C 0.195312 -0.460938 0.113281 -0.695312 0.113281 -0.960938 C 0.113281 -1.296875 0.210938 -1.582031 0.40625 -1.820312 C 0.601562 -2.058594 0.835938 -2.179688 1.117188 -2.179688 Z M 1.203125 -0.207031 C 1.324219 -0.207031 1.421875 -0.242188 1.496094 -0.3125 C 1.570312 -0.382812 1.605469 -0.449219 1.605469 -0.511719 L 1.605469 -1.5 C 1.605469 -1.699219 1.550781 -1.84375 1.445312 -1.925781 C 1.339844 -2.007812 1.234375 -2.046875 1.132812 -2.046875 C 0.9375 -2.046875 0.789062 -1.960938 0.679688 -1.789062 C 0.574219 -1.617188 0.519531 -1.40625 0.519531 -1.15625 C 0.519531 -0.910156 0.574219 -0.691406 0.691406 -0.496094 C 0.804688 -0.300781 0.976562 -0.207031 1.203125 -0.207031 Z "/>
</g>
<g id="glyph-0-8">
<path d="M 1.082031 -2.164062 C 1.296875 -2.164062 1.488281 -2.089844 1.652344 -1.9375 C 1.816406 -1.789062 1.894531 -1.574219 1.894531 -1.300781 L 0.429688 -1.300781 C 0.445312 -0.945312 0.527344 -0.683594 0.671875 -0.519531 C 0.820312 -0.359375 0.992188 -0.277344 1.191406 -0.277344 C 1.351562 -0.277344 1.488281 -0.320312 1.601562 -0.402344 C 1.710938 -0.488281 1.8125 -0.609375 1.90625 -0.761719 L 1.988281 -0.734375 C 1.925781 -0.539062 1.808594 -0.359375 1.632812 -0.195312 C 1.460938 -0.0273438 1.25 0.0546875 1 0.0546875 C 0.710938 0.0546875 0.484375 -0.0546875 0.328125 -0.273438 C 0.171875 -0.492188 0.09375 -0.742188 0.09375 -1.027344 C 0.09375 -1.335938 0.183594 -1.601562 0.367188 -1.828125 C 0.550781 -2.050781 0.789062 -2.164062 1.082031 -2.164062 Z M 0.949219 -1.996094 C 0.773438 -1.996094 0.640625 -1.917969 0.546875 -1.761719 C 0.496094 -1.679688 0.460938 -1.574219 0.441406 -1.449219 L 1.414062 -1.449219 C 1.398438 -1.601562 1.367188 -1.714844 1.324219 -1.792969 C 1.25 -1.925781 1.125 -1.996094 0.949219 -1.996094 Z "/>
</g>
</g>
<image id="source-78" x="0" y="0" width="0" height="0"/>
<mask id="mask-0">
<use xlink:href="#source-78"/>
</mask>
</defs>
<g fill="rgb(61.568627%, 48.235294%, 100%)" fill-opacity="1">
<use xlink:href="#glyph-0-0" x="30" y="23.541992"/>
<use xlink:href="#glyph-0-1" x="31" y="23.541992"/>
<use xlink:href="#glyph-0-2" x="33" y="23.541992"/>
<use xlink:href="#glyph-0-3" x="36" y="23.541992"/>
<use xlink:href="#glyph-0-4" x="37" y="23.541992"/>
<use xlink:href="#glyph-0-1" x="39" y="23.541992"/>
<use xlink:href="#glyph-0-5" x="41" y="23.541992"/>
<use xlink:href="#glyph-0-6" x="43" y="23.541992"/>
<use xlink:href="#glyph-0-7" x="46" y="23.541992"/>
<use xlink:href="#glyph-0-8" x="48" y="23.541992"/>
<use xlink:href="#glyph-0-5" x="50" y="23.541992"/>
<use xlink:href="#glyph-0-4" x="52" y="23.541992"/>
<use xlink:href="#glyph-0-8" x="54" y="23.541992"/>
</g>
</svg>
