<?xml version="1.0" encoding="UTF-8"?>
<svg xmlns="http://www.w3.org/2000/svg" xmlns:xlink="http://www.w3.org/1999/xlink" width="1920" height="1080" viewBox="0 0 1920 1080">
<defs>
<g>
<g id="glyph-0-0">
<path d="M 1.941406 -0.730469 C 1.941406 -0.574219 1.980469 -0.472656 2.054688 -0.425781 C 2.128906 -0.375 2.285156 -0.351562 2.523438 -0.351562 C 3.261719 -0.351562 3.867188 -0.496094 4.34375 -0.789062 C 5.074219 -1.238281 5.441406 -2.003906 5.441406 -3.089844 C 5.441406 -4.058594 5.140625 -4.785156 4.539062 -5.277344 C 4.023438 -5.695312 3.335938 -5.902344 2.484375 -5.902344 C 2.273438 -5.902344 2.128906 -5.878906 2.054688 -5.832031 C 1.980469 -5.785156 1.941406 -5.6875 1.941406 -5.527344 Z M 0.152344 -0.171875 C 0.496094 -0.207031 0.722656 -0.269531 0.824219 -0.355469 C 0.929688 -0.445312 0.980469 -0.667969 0.980469 -1.023438 L 0.980469 -5.226562 C 0.980469 -5.570312 0.929688 -5.789062 0.828125 -5.890625 C 0.726562 -5.988281 0.503906 -6.046875 0.152344 -6.074219 L 0.152344 -6.25 L 2.699219 -6.25 C 3.554688 -6.25 4.28125 -6.105469 4.875 -5.824219 C 5.945312 -5.316406 6.480469 -4.410156 6.480469 -3.105469 C 6.480469 -2.632812 6.382812 -2.1875 6.191406 -1.761719 C 6 -1.335938 5.710938 -0.980469 5.320312 -0.6875 C 5.074219 -0.503906 4.820312 -0.363281 4.554688 -0.265625 C 4.074219 -0.0898438 3.480469 0 2.777344 0 L 0.152344 0 Z "/>
</g>
<g id="glyph-0-1">
<path d="M 2.808594 -6.25 L 2.808594 -6.074219 C 2.445312 -6.050781 2.210938 -5.988281 2.101562 -5.890625 C 1.996094 -5.792969 1.941406 -5.570312 1.941406 -5.226562 L 1.941406 -2.203125 C 1.941406 -1.707031 2.007812 -1.324219 2.144531 -1.046875 C 2.398438 -0.542969 2.875 -0.289062 3.578125 -0.289062 C 4.351562 -0.289062 4.867188 -0.546875 5.132812 -1.066406 C 5.28125 -1.355469 5.355469 -1.800781 5.355469 -2.402344 L 5.355469 -4.859375 C 5.355469 -5.375 5.292969 -5.695312 5.167969 -5.828125 C 5.046875 -5.957031 4.8125 -6.039062 4.46875 -6.074219 L 4.46875 -6.25 L 6.65625 -6.25 L 6.65625 -6.074219 C 6.289062 -6.035156 6.050781 -5.945312 5.9375 -5.808594 C 5.824219 -5.671875 5.769531 -5.355469 5.769531 -4.859375 L 5.769531 -2.402344 C 5.769531 -1.75 5.667969 -1.242188 5.46875 -0.875 C 5.101562 -0.203125 4.398438 0.132812 3.367188 0.132812 C 2.347656 0.132812 1.652344 -0.199219 1.28125 -0.863281 C 1.082031 -1.21875 0.980469 -1.6875 0.980469 -2.273438 L 0.980469 -5.226562 C 0.980469 -5.570312 0.929688 -5.789062 0.824219 -5.886719 C 0.71875 -5.984375 0.484375 -6.046875 0.128906 -6.074219 L 0.128906 -6.25 Z "/>
</g>
<g id="glyph-0-2">
<path d="M 0.609375 -1.898438 C 0.769531 -1.476562 0.957031 -1.136719 1.171875 -0.886719 C 1.546875 -0.445312 2.011719 -0.226562 2.570312 -0.226562 C 2.871094 -0.226562 3.128906 -0.320312 3.351562 -0.511719 C 3.570312 -0.703125 3.679688 -0.96875 3.679688 -1.308594 C 3.679688 -1.617188 3.570312 -1.882812 3.347656 -2.113281 C 3.203125 -2.257812 2.898438 -2.472656 2.433594 -2.761719 L 1.628906 -3.265625 C 1.386719 -3.417969 1.191406 -3.574219 1.046875 -3.730469 C 0.78125 -4.027344 0.644531 -4.359375 0.644531 -4.71875 C 0.644531 -5.195312 0.804688 -5.589844 1.121094 -5.90625 C 1.4375 -6.222656 1.855469 -6.382812 2.378906 -6.382812 C 2.59375 -6.382812 2.855469 -6.328125 3.15625 -6.222656 C 3.460938 -6.117188 3.632812 -6.0625 3.675781 -6.0625 C 3.792969 -6.0625 3.871094 -6.089844 3.917969 -6.148438 C 3.960938 -6.203125 3.996094 -6.28125 4.019531 -6.382812 L 4.214844 -6.382812 L 4.421875 -4.371094 L 4.195312 -4.371094 C 4.042969 -4.976562 3.796875 -5.398438 3.457031 -5.640625 C 3.117188 -5.878906 2.78125 -6 2.449219 -6 C 2.191406 -6 1.964844 -5.921875 1.773438 -5.769531 C 1.582031 -5.617188 1.484375 -5.40625 1.484375 -5.136719 C 1.484375 -4.894531 1.558594 -4.6875 1.707031 -4.515625 C 1.855469 -4.339844 2.082031 -4.15625 2.394531 -3.964844 L 3.222656 -3.453125 C 3.742188 -3.132812 4.109375 -2.839844 4.320312 -2.574219 C 4.53125 -2.304688 4.632812 -1.984375 4.632812 -1.613281 C 4.632812 -1.117188 4.449219 -0.707031 4.074219 -0.375 C 3.699219 -0.0429688 3.222656 0.125 2.640625 0.125 C 2.351562 0.125 2.046875 0.0703125 1.726562 -0.0429688 C 1.410156 -0.152344 1.226562 -0.207031 1.179688 -0.207031 C 1.070312 -0.207031 0.996094 -0.171875 0.957031 -0.105469 C 0.917969 -0.0390625 0.894531 0.0351562 0.878906 0.109375 L 0.671875 0.109375 L 0.390625 -1.898438 Z "/>
</g>
<g id="glyph-0-3">
<path d="M 2.402344 -4.25 L 2.402344 -3.917969 L 1.460938 -3.917969 L 1.453125 -1.261719 C 1.453125 -1.027344 1.472656 -0.851562 1.511719 -0.734375 C 1.585938 -0.519531 1.730469 -0.414062 1.945312 -0.414062 C 2.054688 -0.414062 2.152344 -0.441406 2.234375 -0.492188 C 2.316406 -0.546875 2.410156 -0.628906 2.511719 -0.742188 L 2.632812 -0.640625 L 2.53125 -0.503906 C 2.371094 -0.289062 2.203125 -0.136719 2.023438 -0.046875 C 1.847656 0.0429688 1.675781 0.0859375 1.507812 0.0859375 C 1.144531 0.0859375 0.898438 -0.0742188 0.769531 -0.398438 C 0.699219 -0.574219 0.664062 -0.816406 0.664062 -1.125 L 0.664062 -3.917969 L 0.160156 -3.917969 C 0.144531 -3.929688 0.132812 -3.9375 0.125 -3.949219 C 0.117188 -3.957031 0.117188 -3.96875 0.117188 -3.984375 C 0.117188 -4.015625 0.121094 -4.039062 0.136719 -4.054688 C 0.148438 -4.074219 0.195312 -4.113281 0.265625 -4.171875 C 0.480469 -4.347656 0.632812 -4.492188 0.726562 -4.601562 C 0.820312 -4.710938 1.039062 -4.996094 1.386719 -5.464844 C 1.425781 -5.464844 1.453125 -5.460938 1.460938 -5.457031 C 1.46875 -5.449219 1.472656 -5.425781 1.472656 -5.386719 L 1.472656 -4.25 Z "/>
</g>
<g id="glyph-0-4">
<path d="M 0.734375 -0.800781 C 0.902344 -0.800781 1.125 -0.714844 1.402344 -0.539062 C 1.683594 -0.363281 1.917969 -0.277344 2.113281 -0.277344 C 2.542969 -0.277344 2.863281 -0.421875 3.070312 -0.710938 C 3.28125 -1.003906 3.386719 -1.320312 3.386719 -1.660156 C 3.386719 -1.988281 3.300781 -2.277344 3.132812 -2.527344 C 2.847656 -2.949219 2.363281 -3.160156 1.683594 -3.160156 C 1.644531 -3.160156 1.605469 -3.15625 1.566406 -3.15625 C 1.53125 -3.15625 1.488281 -3.152344 1.4375 -3.144531 L 1.429688 -3.265625 C 1.921875 -3.445312 2.308594 -3.648438 2.589844 -3.878906 C 2.875 -4.109375 3.015625 -4.414062 3.015625 -4.792969 C 3.015625 -5.128906 2.90625 -5.382812 2.679688 -5.558594 C 2.457031 -5.734375 2.203125 -5.820312 1.917969 -5.820312 C 1.578125 -5.820312 1.28125 -5.695312 1.023438 -5.445312 C 0.882812 -5.3125 0.730469 -5.101562 0.566406 -4.820312 L 0.425781 -4.851562 C 0.546875 -5.320312 0.777344 -5.691406 1.113281 -5.972656 C 1.445312 -6.25 1.832031 -6.390625 2.273438 -6.390625 C 2.742188 -6.390625 3.105469 -6.261719 3.363281 -6.003906 C 3.621094 -5.746094 3.75 -5.449219 3.75 -5.109375 C 3.75 -4.8125 3.644531 -4.539062 3.429688 -4.289062 C 3.3125 -4.148438 3.125 -3.988281 2.871094 -3.8125 C 3.167969 -3.6875 3.40625 -3.539062 3.582031 -3.371094 C 3.917969 -3.046875 4.085938 -2.640625 4.085938 -2.144531 C 4.085938 -1.558594 3.855469 -1.046875 3.394531 -0.597656 C 2.9375 -0.152344 2.28125 0.0703125 1.433594 0.0703125 C 1.054688 0.0703125 0.789062 0.0117188 0.640625 -0.0976562 C 0.488281 -0.210938 0.410156 -0.332031 0.410156 -0.460938 C 0.410156 -0.539062 0.4375 -0.617188 0.488281 -0.691406 C 0.539062 -0.765625 0.621094 -0.800781 0.734375 -0.800781 Z "/>
</g>
<g id="glyph-0-5">
<path d="M 1.875 -3.234375 C 2.554688 -3.257812 3.042969 -3.328125 3.335938 -3.445312 C 3.835938 -3.652344 4.085938 -4.039062 4.085938 -4.605469 C 4.085938 -5.152344 3.863281 -5.527344 3.414062 -5.726562 C 3.171875 -5.835938 2.855469 -5.890625 2.457031 -5.890625 C 2.191406 -5.890625 2.027344 -5.871094 1.96875 -5.832031 C 1.90625 -5.792969 1.875 -5.703125 1.875 -5.5625 Z M 0.105469 -0.171875 C 0.46875 -0.203125 0.695312 -0.273438 0.785156 -0.382812 C 0.875 -0.492188 0.917969 -0.742188 0.917969 -1.132812 L 0.917969 -5.226562 C 0.917969 -5.558594 0.867188 -5.773438 0.769531 -5.878906 C 0.667969 -5.980469 0.449219 -6.046875 0.105469 -6.074219 L 0.105469 -6.25 L 2.722656 -6.25 C 3.265625 -6.25 3.71875 -6.179688 4.082031 -6.042969 C 4.769531 -5.78125 5.113281 -5.296875 5.113281 -4.597656 C 5.113281 -4.128906 4.960938 -3.765625 4.65625 -3.515625 C 4.351562 -3.261719 3.933594 -3.097656 3.40625 -3.015625 L 5.355469 -0.621094 C 5.472656 -0.472656 5.59375 -0.367188 5.714844 -0.300781 C 5.832031 -0.234375 5.988281 -0.1875 6.175781 -0.171875 L 6.175781 0 L 4.652344 0 L 2.402344 -2.90625 L 1.875 -2.882812 L 1.875 -1.023438 C 1.875 -0.671875 1.929688 -0.449219 2.035156 -0.355469 C 2.140625 -0.261719 2.375 -0.203125 2.730469 -0.171875 L 2.730469 0 L 0.105469 0 Z "/>
</g>
</g>
</defs>
<g fill="rgb(95.686275%, 96.862745%, 98.431373%)" fill-opacity="1">
<use xlink:href="#glyph-0-0" x="30" y="27.083008"/>
<use xlink:href="#glyph-0-1" x="37" y="27.083008"/>
<use xlink:href="#glyph-0-2" x="44" y="27.083008"/>
<use xlink:href="#glyph-0-3" x="49" y="27.083008"/>
<use xlink:href="#glyph-0-4" x="52" y="27.083008"/>
<use xlink:href="#glyph-0-5" x="57" y="27.083008"/>
</g>
</svg>
